<svg width="20" height="20" viewBox="0 0 20 20" fill="none" xmlns="http://www.w3.org/2000/svg">
<path d="M10.0001 18.9584C5.05841 18.9584 1.04175 14.9417 1.04175 10.0001C1.04175 5.05841 5.05841 1.04175 10.0001 1.04175C14.9417 1.04175 18.9584 5.05841 18.9584 10.0001C18.9584 14.9417 14.9417 18.9584 10.0001 18.9584ZM10.0001 2.29175C5.75008 2.29175 2.29175 5.75008 2.29175 10.0001C2.29175 14.2501 5.75008 17.7084 10.0001 17.7084C14.2501 17.7084 17.7084 14.2501 17.7084 10.0001C17.7084 5.75008 14.2501 2.29175 10.0001 2.29175Z" fill="currentColor"/>
<path d="M10 12.7083C9.65833 12.7083 9.375 12.4249 9.375 12.0833V7.08325C9.375 6.74159 9.65833 6.45825 10 6.45825C10.3417 6.45825 10.625 6.74159 10.625 7.08325V12.0833C10.625 12.4249 10.3417 12.7083 10 12.7083Z" fill="currentColor"/>
<path d="M10.0001 13.5416C9.84178 13.5416 9.68345 13.4833 9.55845 13.3583L7.05845 10.8583C6.81678 10.6166 6.81678 10.2166 7.05845 9.97495C7.30011 9.73328 7.70011 9.73328 7.94178 9.97495L10.0001 12.0333L12.0584 9.97495C12.3001 9.73328 12.7001 9.73328 12.9418 9.97495C13.1834 10.2166 13.1834 10.6166 12.9418 10.8583L10.4418 13.3583C10.3168 13.4833 10.1584 13.5416 10.0001 13.5416Z" fill="currentColor"/>
</svg>
