<svg width="20" height="20" viewBox="0 0 20 20" fill="none" xmlns="http://www.w3.org/2000/svg">
<path d="M9.99996 18.9583C5.05829 18.9583 1.04163 14.9417 1.04163 9.99999C1.04163 5.05832 5.05829 1.04166 9.99996 1.04166C14.9416 1.04166 18.9583 5.05832 18.9583 9.99999C18.9583 14.9417 14.9416 18.9583 9.99996 18.9583ZM9.99996 2.29166C5.74996 2.29166 2.29163 5.74999 2.29163 9.99999C2.29163 14.25 5.74996 17.7083 9.99996 17.7083C14.25 17.7083 17.7083 14.25 17.7083 9.99999C17.7083 5.74999 14.25 2.29166 9.99996 2.29166Z" fill="currentColor"/>
<path d="M8.94994 13.5667C8.79161 13.5667 8.63328 13.5083 8.50828 13.3833C8.26661 13.1417 8.26661 12.7417 8.50828 12.5L11.0083 10L8.50828 7.50001C8.26661 7.25834 8.26661 6.85834 8.50828 6.61667C8.74994 6.37501 9.14994 6.37501 9.39161 6.61667L12.3333 9.55834C12.5749 9.80001 12.5749 10.2 12.3333 10.4417L9.39161 13.3833C9.26661 13.5083 9.10828 13.5667 8.94994 13.5667Z" fill="currentColor"/>
</svg>
