<svg width="20" height="20" viewBox="0 0 20 20" fill="none" xmlns="http://www.w3.org/2000/svg">
<path d="M12.4167 18.9583H7.58333C6.84166 18.9583 5.89165 18.5667 5.37499 18.0417L1.95833 14.625C1.43333 14.1 1.04166 13.15 1.04166 12.4167V7.58333C1.04166 6.84166 1.43333 5.89167 1.95833 5.375L5.37499 1.95833C5.89999 1.43333 6.85 1.04166 7.58333 1.04166H12.4167C13.1583 1.04166 14.1083 1.43333 14.625 1.95833L18.0417 5.375C18.5667 5.9 18.9583 6.85 18.9583 7.58333V12.4167C18.9583 13.1583 18.5667 14.1083 18.0417 14.625L14.625 18.0417C14.1 18.5667 13.1583 18.9583 12.4167 18.9583ZM7.58333 2.29166C7.175 2.29166 6.54165 2.54999 6.25832 2.84166L2.84166 6.25833C2.55833 6.55 2.29166 7.175 2.29166 7.58333V12.4167C2.29166 12.825 2.54999 13.4583 2.84166 13.7416L6.25832 17.1583C6.54999 17.4417 7.175 17.7083 7.58333 17.7083H12.4167C12.825 17.7083 13.4583 17.45 13.7417 17.1583L17.1583 13.7416C17.4417 13.45 17.7083 12.825 17.7083 12.4167V7.58333C17.7083 7.175 17.45 6.54167 17.1583 6.25833L13.7417 2.84166C13.45 2.55833 12.825 2.29166 12.4167 2.29166H7.58333Z" fill="currentColor"/>
<path d="M7.08327 13.5417C6.92494 13.5417 6.76661 13.4834 6.64161 13.3584C6.39994 13.1167 6.39994 12.7167 6.64161 12.475L12.4749 6.6417C12.7166 6.40003 13.1166 6.40003 13.3583 6.6417C13.5999 6.88337 13.5999 7.28336 13.3583 7.52503L7.52494 13.3584C7.39994 13.4834 7.24161 13.5417 7.08327 13.5417Z" fill="currentColor"/>
<path d="M12.9166 13.5417C12.7583 13.5417 12.5999 13.4834 12.4749 13.3584L6.64161 7.52503C6.39994 7.28336 6.39994 6.88337 6.64161 6.6417C6.88327 6.40003 7.28327 6.40003 7.52494 6.6417L13.3583 12.475C13.5999 12.7167 13.5999 13.1167 13.3583 13.3584C13.2333 13.4834 13.0749 13.5417 12.9166 13.5417Z" fill="currentColor"/>
</svg>
