<svg width="20" height="20" viewBox="0 0 20 20" fill="none" xmlns="http://www.w3.org/2000/svg">
<path d="M13.175 16.8167C12.9583 16.8167 12.7333 16.8083 12.4917 16.7833C12.0583 16.75 11.5667 16.6667 11.0583 16.5417L9.65833 16.2083C5.81667 15.3 4.55833 13.2667 5.45833 9.43333L6.275 5.94166C6.45833 5.14999 6.675 4.50833 6.94167 3.97499C8.375 1.01666 11.1167 1.28333 13.0667 1.74166L14.4583 2.06666C16.4083 2.52499 17.6417 3.24999 18.3333 4.35833C19.0167 5.46666 19.125 6.89166 18.6667 8.84166L17.85 12.325C17.1333 15.375 15.6417 16.8167 13.175 16.8167ZM10.9333 2.70833C9.54167 2.70833 8.65833 3.28333 8.06667 4.51666C7.85 4.96666 7.65833 5.52499 7.49167 6.22499L6.675 9.71666C5.93333 12.8667 6.79167 14.2417 9.94167 14.9917L11.3417 15.325C11.7917 15.4333 12.2167 15.5 12.6 15.5333C14.8667 15.7583 15.9917 14.7667 16.625 12.0417L17.4417 8.55833C17.8167 6.94999 17.7667 5.82499 17.2667 5.01666C16.7667 4.20833 15.7833 3.65833 14.1667 3.28333L12.775 2.95833C12.0833 2.79166 11.4667 2.70833 10.9333 2.70833Z" fill="currentColor"/>
<path d="M6.94167 18.5417C4.8 18.5417 3.43334 17.2583 2.55834 14.55L1.49167 11.2583C0.308336 7.59168 1.36667 5.52501 5.01667 4.34168L6.33334 3.91668C6.76667 3.78334 7.09167 3.69168 7.38334 3.64168C7.625 3.59168 7.85834 3.68334 8 3.87501C8.14167 4.06668 8.16667 4.31668 8.06667 4.53334C7.85 4.97501 7.65834 5.53334 7.5 6.23334L6.68334 9.72501C5.94167 12.875 6.8 14.25 9.95 15L11.35 15.3333C11.8 15.4417 12.225 15.5083 12.6083 15.5417C12.875 15.5667 13.0917 15.75 13.1667 16.0083C13.2333 16.2667 13.1333 16.5333 12.9167 16.6833C12.3667 17.0583 11.675 17.375 10.8 17.6583L9.48334 18.0917C8.525 18.3917 7.69167 18.5417 6.94167 18.5417ZM6.48334 5.18334L5.40834 5.53334C2.43334 6.49168 1.725 7.89168 2.68334 10.875L3.75 14.1667C4.71667 17.1417 6.11667 17.8583 9.09167 16.9L10.4083 16.4667C10.4583 16.45 10.5 16.4333 10.55 16.4167L9.66667 16.2083C5.825 15.3 4.56667 13.2667 5.46667 9.43334L6.28334 5.94168C6.34167 5.67501 6.40834 5.41668 6.48334 5.18334Z" fill="currentColor"/>
<path d="M14.575 8.75833C14.525 8.75833 14.475 8.75 14.4167 8.74166L10.375 7.71666C10.0417 7.63333 9.84165 7.29166 9.92499 6.95833C10.0083 6.625 10.35 6.425 10.6833 6.50833L14.725 7.53333C15.0583 7.61666 15.2583 7.95833 15.175 8.29166C15.1083 8.56666 14.85 8.75833 14.575 8.75833Z" fill="currentColor"/>
<path d="M12.1333 11.575C12.0833 11.575 12.0333 11.5666 11.975 11.5583L9.55001 10.9416C9.21667 10.8583 9.01667 10.5166 9.10001 10.1833C9.18334 9.84997 9.52501 9.64997 9.85834 9.73331L12.2833 10.35C12.6167 10.4333 12.8167 10.775 12.7333 11.1083C12.6667 11.3916 12.4167 11.575 12.1333 11.575Z" fill="currentColor"/>
</svg>
