<svg width="20" height="21" viewBox="0 0 20 21" fill="none" xmlns="http://www.w3.org/2000/svg">
<path d="M9.58335 18.625C4.87502 18.625 1.04169 14.7917 1.04169 10.0834C1.04169 5.37502 4.87502 1.54169 9.58335 1.54169C14.2917 1.54169 18.125 5.37502 18.125 10.0834C18.125 14.7917 14.2917 18.625 9.58335 18.625ZM9.58335 2.79169C5.55835 2.79169 2.29169 6.06669 2.29169 10.0834C2.29169 14.1 5.55835 17.375 9.58335 17.375C13.6084 17.375 16.875 14.1 16.875 10.0834C16.875 6.06669 13.6084 2.79169 9.58335 2.79169Z" fill="currentColor"/>
<path d="M18.3333 19.4583C18.175 19.4583 18.0167 19.4 17.8917 19.275L16.225 17.6083C15.9833 17.3667 15.9833 16.9667 16.225 16.725C16.4667 16.4833 16.8667 16.4833 17.1083 16.725L18.775 18.3917C19.0167 18.6333 19.0167 19.0333 18.775 19.275C18.65 19.4 18.4917 19.4583 18.3333 19.4583Z" fill="currentColor"/>
</svg>
